HIERARCHY
ROOT Hips
{
	OFFSET 0.053599 -3.107461 88.859886
	CHANNELS 6 Xposition Yposition Zposition Zrotation Yrotation Xrotation
	JOINT Spine
	{
		OFFSET 0.000000 2.080106 8.814247
		CHANNELS 6 Xposition Yposition Zposition Zrotation Yrotation Xrotation
		JOINT Spine1
		{
			OFFSET -0.000000 -0.000002 8.844139
			CHANNELS 6 Xposition Yposition Zposition Zrotation Yrotation Xrotation
			JOINT Spine2
			{
				OFFSET 0.000000 -0.000002 11.682266
				CHANNELS 6 Xposition Yposition Zposition Zrotation Yrotation Xrotation
				JOINT Spine3
				{
					OFFSET 0.000000 -0.000002 11.746696
					CHANNELS 6 Xposition Yposition Zposition Zrotation Yrotation Xrotation
					JOINT Neck
					{
						OFFSET 0.000000 -0.000003 17.658264
						CHANNELS 6 Xposition Yposition Zposition Zrotation Yrotation Xrotation
						JOINT Neck1
						{
							OFFSET 0.000000 -0.000001 5.101517
							CHANNELS 6 Xposition Yposition Zposition Zrotation Yrotation Xrotation
							JOINT Head
							{
								OFFSET 0.000000 -0.000001 5.101517
								CHANNELS 6 Xposition Yposition Zposition Zrotation Yrotation Xrotation
								JOINT HeadEnd
								{
									OFFSET 0.000000 -0.000002 11.655090
									CHANNELS 6 Xposition Yposition Zposition Zrotation Yrotation Xrotation
									End Site
									{
										OFFSET 0.000000 0.000000 0.100006
									}
								}
							}
						}
					}
					JOINT RightShoulder
					{
						OFFSET -2.625389 -0.000002 11.175217
						CHANNELS 6 Xposition Yposition Zposition Zrotation Yrotation Xrotation
						JOINT RightArm
						{
							OFFSET -10.434450 -0.000002 0.073257
							CHANNELS 6 Xposition Yposition Zposition Zrotation Yrotation Xrotation
							JOINT RightForeArm
							{
								OFFSET -29.627689 -0.000006 0.208023
								CHANNELS 6 Xposition Yposition Zposition Zrotation Yrotation Xrotation
								JOINT RightHand
								{
									OFFSET -22.857037 -0.000004 0.160492
									CHANNELS 6 Xposition Yposition Zposition Zrotation Yrotation Xrotation
									JOINT RightHandThumb1
									{
										OFFSET -3.979599 -2.944292 -2.839447
										CHANNELS 6 Xposition Yposition Zposition Zrotation Yrotation Xrotation
										JOINT RightHandThumb2
										{
											OFFSET -3.350319 -0.000000 0.023529
											CHANNELS 6 Xposition Yposition Zposition Zrotation Yrotation Xrotation
											JOINT RightHandThumb3
											{
												OFFSET -3.756424 -0.000001 0.026367
												CHANNELS 6 Xposition Yposition Zposition Zrotation Yrotation Xrotation
												JOINT RightHandThumb4
												{
													OFFSET -3.147263 -0.000000 0.022095
													CHANNELS 6 Xposition Yposition Zposition Zrotation Yrotation Xrotation
													End Site
													{
														OFFSET -0.100006 0.000000 0.000702
													}
												}
											}
										}
									}
									JOINT RightHandIndex1
									{
										OFFSET -10.031258 -2.345282 -0.016327
										CHANNELS 6 Xposition Yposition Zposition Zrotation Yrotation Xrotation
										JOINT RightHandIndex2
										{
											OFFSET -4.060997 -0.000001 0.028519
											CHANNELS 6 Xposition Yposition Zposition Zrotation Yrotation Xrotation
											JOINT RightHandIndex3
											{
												OFFSET -3.248787 -0.000000 0.022812
												CHANNELS 6 Xposition Yposition Zposition Zrotation Yrotation Xrotation
												JOINT RightHandIndex4
												{
													OFFSET -2.639641 -0.000000 0.018539
													CHANNELS 6 Xposition Yposition Zposition Zrotation Yrotation Xrotation
													End Site
													{
														OFFSET -0.100006 0.000000 0.000702
													}
												}
											}
										}
									}
									JOINT RightHandMiddle1
									{
										OFFSET -9.501976 -0.006770 0.170822
										CHANNELS 6 Xposition Yposition Zposition Zrotation Yrotation Xrotation
										JOINT RightHandMiddle2
										{
											OFFSET -4.568611 -0.000001 0.032074
											CHANNELS 6 Xposition Yposition Zposition Zrotation Yrotation Xrotation
											JOINT RightHandMiddle3
											{
												OFFSET -3.654892 -0.000001 0.025665
												CHANNELS 6 Xposition Yposition Zposition Zrotation Yrotation Xrotation
												JOINT RightHandMiddle4
												{
													OFFSET -2.741173 -0.000001 0.019241
													CHANNELS 6 Xposition Yposition Zposition Zrotation Yrotation Xrotation
													End Site
													{
														OFFSET -0.100006 0.000000 0.000702
													}
												}
											}
										}
									}
									JOINT RightHandRing1
									{
										OFFSET -8.920876 2.267440 0.149399
										CHANNELS 6 Xposition Yposition Zposition Zrotation Yrotation Xrotation
										JOINT RightHandRing2
										{
											OFFSET -4.060997 -0.000001 0.028519
											CHANNELS 6 Xposition Yposition Zposition Zrotation Yrotation Xrotation
											JOINT RightHandRing3
											{
												OFFSET -3.654892 -0.000001 0.025665
												CHANNELS 6 Xposition Yposition Zposition Zrotation Yrotation Xrotation
												JOINT RightHandRing4
												{
													OFFSET -2.741173 -0.000000 0.019241
													CHANNELS 6 Xposition Yposition Zposition Zrotation Yrotation Xrotation
													End Site
													{
														OFFSET -0.100006 0.000000 0.000702
													}
												}
											}
										}
									}
									JOINT RightHandPinky1
									{
										OFFSET -7.978012 4.467197 -0.117493
										CHANNELS 6 Xposition Yposition Zposition Zrotation Yrotation Xrotation
										JOINT RightHandPinky2
										{
											OFFSET -3.350319 0.000000 0.023529
											CHANNELS 6 Xposition Yposition Zposition Zrotation Yrotation Xrotation
											JOINT RightHandPinky3
											{
												OFFSET -2.842690 -0.000000 0.019958
												CHANNELS 6 Xposition Yposition Zposition Zrotation Yrotation Xrotation
												JOINT RightHandPinky4
												{
													OFFSET -2.639641 -0.000000 0.018539
													CHANNELS 6 Xposition Yposition Zposition Zrotation Yrotation Xrotation
													End Site
													{
														OFFSET -0.100006 0.000000 0.000702
													}
												}
											}
										}
									}
									JOINT RightForeArmEnd
									{
										OFFSET 0.000000 0.000000 0.000000
										CHANNELS 6 Xposition Yposition Zposition Zrotation Yrotation Xrotation
										End Site
										{
											OFFSET -0.100006 0.000000 0.000702
										}
									}
								}
								JOINT RightArmEnd
								{
									OFFSET 0.000000 0.000000 0.000000
									CHANNELS 6 Xposition Yposition Zposition Zrotation Yrotation Xrotation
									End Site
									{
										OFFSET -0.100002 0.000000 0.000702
									}
								}
							}
						}
					}
					JOINT LeftShoulder
					{
						OFFSET 2.625389 -0.000002 11.175217
						CHANNELS 6 Xposition Yposition Zposition Zrotation Yrotation Xrotation
						JOINT LeftArm
						{
							OFFSET 10.804386 -0.000002 0.447021
							CHANNELS 6 Xposition Yposition Zposition Zrotation Yrotation Xrotation
							JOINT LeftForeArm
							{
								OFFSET 28.700224 -0.000005 1.187454
								CHANNELS 6 Xposition Yposition Zposition Zrotation Yrotation Xrotation
								JOINT LeftHand
								{
									OFFSET 25.720829 0.328866 0.419235
									CHANNELS 6 Xposition Yposition Zposition Zrotation Yrotation Xrotation
									JOINT LeftHandThumb1
									{
										OFFSET 4.074707 -2.944292 -2.701202
										CHANNELS 6 Xposition Yposition Zposition Zrotation Yrotation Xrotation
										JOINT LeftHandThumb2
										{
											OFFSET 3.347542 -0.000000 0.138504
											CHANNELS 6 Xposition Yposition Zposition Zrotation Yrotation Xrotation
											JOINT LeftHandThumb3
											{
												OFFSET 3.753304 -0.000001 0.155289
												CHANNELS 6 Xposition Yposition Zposition Zrotation Yrotation Xrotation
												JOINT LeftHandThumb4
												{
													OFFSET 3.097359 -0.000000 0.128143
													CHANNELS 6 Xposition Yposition Zposition Zrotation Yrotation Xrotation
													End Site
													{
														OFFSET 0.099922 0.000000 0.004135
													}
												}
											}
										}
									}
									JOINT LeftHandIndex1
									{
										OFFSET 10.025909 -2.345282 0.327988
										CHANNELS 6 Xposition Yposition Zposition Zrotation Yrotation Xrotation
										JOINT LeftHandIndex2
										{
											OFFSET 4.057625 -0.000001 0.167877
											CHANNELS 6 Xposition Yposition Zposition Zrotation Yrotation Xrotation
											JOINT LeftHandIndex3
											{
												OFFSET 3.246094 -0.000000 0.134308
												CHANNELS 6 Xposition Yposition Zposition Zrotation Yrotation Xrotation
												JOINT LeftHandIndex4
												{
													OFFSET 2.637451 -0.000000 0.109116
													CHANNELS 6 Xposition Yposition Zposition Zrotation Yrotation Xrotation
													End Site
													{
														OFFSET 0.099922 0.000000 0.004135
													}
												}
											}
										}
									}
									JOINT LeftHandMiddle1
									{
										OFFSET 9.490517 -0.006770 0.496857
										CHANNELS 6 Xposition Yposition Zposition Zrotation Yrotation Xrotation
										JOINT LeftHandMiddle2
										{
											OFFSET 4.564819 -0.000001 0.188858
											CHANNELS 6 Xposition Yposition Zposition Zrotation Yrotation Xrotation
											JOINT LeftHandMiddle3
											{
												OFFSET 3.651863 -0.000001 0.151093
												CHANNELS 6 Xposition Yposition Zposition Zrotation Yrotation Xrotation
												JOINT LeftHandMiddle4
												{
													OFFSET 2.738899 -0.000001 0.113327
													CHANNELS 6 Xposition Yposition Zposition Zrotation Yrotation Xrotation
													End Site
													{
														OFFSET 0.099922 0.000000 0.004135
													}
												}
											}
										}
									}
									JOINT LeftHandRing1
									{
										OFFSET 8.910492 2.267440 0.455490
										CHANNELS 6 Xposition Yposition Zposition Zrotation Yrotation Xrotation
										JOINT LeftHandRing2
										{
											OFFSET 4.057625 -0.000001 0.167877
											CHANNELS 6 Xposition Yposition Zposition Zrotation Yrotation Xrotation
											JOINT LeftHandRing3
											{
												OFFSET 3.651863 -0.000001 0.151093
												CHANNELS 6 Xposition Yposition Zposition Zrotation Yrotation Xrotation
												JOINT LeftHandRing4
												{
													OFFSET 2.738899 -0.000001 0.113327
													CHANNELS 6 Xposition Yposition Zposition Zrotation Yrotation Xrotation
													End Site
													{
														OFFSET 0.099922 0.000000 0.004135
													}
												}
											}
										}
									}
									JOINT LeftHandPinky1
									{
										OFFSET 7.977341 4.467197 0.156403
										CHANNELS 6 Xposition Yposition Zposition Zrotation Yrotation Xrotation
										JOINT LeftHandPinky2
										{
											OFFSET 3.347542 -0.000001 0.138504
											CHANNELS 6 Xposition Yposition Zposition Zrotation Yrotation Xrotation
											JOINT LeftHandPinky3
											{
												OFFSET 2.840332 -0.000000 0.117523
												CHANNELS 6 Xposition Yposition Zposition Zrotation Yrotation Xrotation
												JOINT LeftHandPinky4
												{
													OFFSET 2.637451 -0.000000 0.109116
													CHANNELS 6 Xposition Yposition Zposition Zrotation Yrotation Xrotation
													End Site
													{
														OFFSET 0.099922 0.000000 0.004135
													}
												}
											}
										}
									}
									JOINT LeftForeArmEnd
									{
										OFFSET 0.000000 0.000000 0.000000
										CHANNELS 6 Xposition Yposition Zposition Zrotation Yrotation Xrotation
										End Site
										{
											OFFSET 0.099922 0.000000 0.004135
										}
									}
								}
								JOINT LeftArmEnd
								{
									OFFSET 0.000000 0.000000 0.000000
									CHANNELS 6 Xposition Yposition Zposition Zrotation Yrotation Xrotation
									End Site
									{
										OFFSET 0.099922 0.000000 0.004135
									}
								}
							}
						}
					}
				}
			}
		}
	}
	JOINT RightUpLeg
	{
		OFFSET -11.289943 0.000000 0.000000
		CHANNELS 6 Xposition Yposition Zposition Zrotation Yrotation Xrotation
		JOINT RightLeg
		{
			OFFSET 0.000000 0.000006 -38.200325
			CHANNELS 6 Xposition Yposition Zposition Zrotation Yrotation Xrotation
			JOINT RightFoot
			{
				OFFSET 0.000000 0.000007 -39.900856
				CHANNELS 6 Xposition Yposition Zposition Zrotation Yrotation Xrotation
				JOINT RightToeBase
				{
					OFFSET 0.000000 -15.261641 -0.000004
					CHANNELS 6 Xposition Yposition Zposition Zrotation Yrotation Xrotation
					JOINT RightToeBaseEnd
					{
						OFFSET 0.000000 -7.370708 -0.000001
						CHANNELS 6 Xposition Yposition Zposition Zrotation Yrotation Xrotation
						End Site
						{
							OFFSET 0.000000 0.000000 0.100000
						}
					}
				}
				JOINT RightLegEnd
				{
					OFFSET 0.000000 0.000000 -0.000004
					CHANNELS 6 Xposition Yposition Zposition Zrotation Yrotation Xrotation
					End Site
					{
						OFFSET 0.000000 0.000000 0.100000
					}
				}
			}
			JOINT RightUpLegEnd
			{
				OFFSET 0.000000 0.000000 0.000000
				CHANNELS 6 Xposition Yposition Zposition Zrotation Yrotation Xrotation
				End Site
				{
					OFFSET 0.000000 0.000000 0.099998
				}
			}
		}
	}
	JOINT LeftUpLeg
	{
		OFFSET 11.315661 0.000000 0.000000
		CHANNELS 6 Xposition Yposition Zposition Zrotation Yrotation Xrotation
		JOINT LeftLeg
		{
			OFFSET 0.000000 0.000006 -38.200325
			CHANNELS 6 Xposition Yposition Zposition Zrotation Yrotation Xrotation
			JOINT LeftFoot
			{
				OFFSET 0.000000 0.000007 -39.900856
				CHANNELS 6 Xposition Yposition Zposition Zrotation Yrotation Xrotation
				JOINT LeftToeBase
				{
					OFFSET 0.000000 -15.261641 -0.000004
					CHANNELS 6 Xposition Yposition Zposition Zrotation Yrotation Xrotation
					JOINT LeftToeBaseEnd
					{
						OFFSET 0.000000 -7.539997 -0.000001
						CHANNELS 6 Xposition Yposition Zposition Zrotation Yrotation Xrotation
						End Site
						{
							OFFSET 0.000000 0.000000 0.100000
						}
					}
				}
				JOINT LeftLegEnd
				{
					OFFSET 0.000000 0.000000 -0.000004
					CHANNELS 6 Xposition Yposition Zposition Zrotation Yrotation Xrotation
					End Site
					{
						OFFSET 0.000000 0.000000 0.100000
					}
				}
			}
			JOINT LeftUpLegEnd
			{
				OFFSET 0.000000 0.000000 0.000000
				CHANNELS 6 Xposition Yposition Zposition Zrotation Yrotation Xrotation
				End Site
				{
					OFFSET 0.000000 0.000000 0.099998
				}
			}
		}
	}
}
MOTION
Frames: 2
Frame Time: 0.033333
0.053599 -3.107462 88.859886 0.055864 -0.490481 -6.497810 -0.000000 2.080105 8.814232 -0.000539 -0.023754 5.886372 -0.000000 -0.000002 8.844144 0.067057 1.012250 0.863155 0.000000 -0.000002 11.682259 -2.416876 -0.477645 3.849727 -0.000000 -0.000002 11.746687 -0.780503 -0.155015 1.931336 0.000000 -0.000003 17.658237 0.848813 -2.330260 4.982334 0.000001 -0.000003 5.101545 2.117907 -0.371430 -3.235599 0.000001 0.000003 5.101498 -0.852215 0.714454 -18.233028 0.000000 -0.000009 11.655075 -0.000000 0.000000 -0.000000 -2.625369 -0.000001 11.175192 -75.734572 -100.016495 75.992480 -10.434457 -0.000005 0.073257 10.729283 -67.849979 23.605846 -29.627691 -0.000003 0.208012 21.974957 4.799230 -11.325504 -22.857027 0.000003 0.160488 -6.243258 -8.364414 -12.959264 -3.979605 -2.944299 -2.839435 52.570163 14.816367 -32.254257 -3.350307 -0.000006 0.023524 -20.540431 12.142914 8.306440 -3.756419 -0.000001 0.026364 -14.391594 8.129542 6.217987 -3.147261 0.000001 0.022095 -0.000001 0.000000 0.000001 -10.031243 -2.345277 -0.016325 0.156875 -12.657736 10.679428 -4.060995 0.000003 0.028507 1.342509 -8.894264 -0.575025 -3.248796 -0.000000 0.022803 1.258171 -8.903356 -0.074123 -2.639632 -0.000009 0.018525 0.000002 0.000001 -0.000001 -9.501984 -0.006766 0.170841 -1.296145 -11.072564 5.688211 -4.568615 -0.000003 0.032081 0.488834 -7.885715 -0.519550 -3.654887 -0.000003 0.025633 0.416161 -7.889296 -0.017173 -2.741181 0.000001 0.019227 -0.000000 0.000001 -0.000001 -8.920872 2.267442 0.149391 -1.544557 -10.977300 -2.281896 -4.060994 0.000003 0.028532 -0.624003 -7.815214 1.027892 -3.654893 0.000004 0.025671 -0.481071 -7.825048 -0.008172 -2.741168 -0.000005 0.019242 -0.000000 0.000000 -0.000000 -7.978003 4.467191 -0.117495 -2.716245 -10.157195 -10.738032 -3.350317 -0.000002 0.023540 -1.677349 -7.103290 2.097525 -2.842681 -0.000002 0.019965 -1.410870 -7.157245 0.080393 -2.639641 0.000003 0.018539 -0.000000 -0.000000 0.000000 0.000010 -0.000000 -0.000002 -0.000001 -0.000001 0.000001 0.000007 0.000008 -0.000001 -0.000002 -0.000001 0.000001 2.625409 0.000000 11.175202 85.783126 95.216197 86.033732 10.804396 -0.000004 0.447021 21.427395 67.812502 39.138678 28.700230 -0.000007 1.187452 -40.909698 -4.579550 -5.416163 25.720831 0.328864 0.419217 12.965987 6.573459 -25.313540 4.074711 -2.944293 -2.701205 -53.691595 -13.826588 -30.714654 3.347538 -0.000014 0.138510 22.105544 -12.773287 7.825147 3.753303 0.000003 0.155281 15.467228 -8.565658 5.946936 3.097358 0.000005 0.128129 0.000002 -0.000001 -0.000002 10.025928 -2.345283 0.327982 1.745193 16.339226 -5.222166 4.057627 0.000001 0.167882 1.763100 11.555405 0.607177 3.246091 -0.000002 0.134337 1.640256 11.570025 0.097447 2.637442 0.000001 0.109089 0.000001 -0.000003 -0.000000 9.490528 -0.006769 0.496859 1.725652 15.659810 -0.362590 4.564822 -0.000004 0.188852 0.709991 11.163113 0.549356 3.651860 0.000001 0.151086 0.590990 11.168872 0.031692 2.738889 0.000000 0.113329 0.000000 -0.000001 0.000001 8.910519 2.267438 0.455491 1.396417 17.842121 7.988924 4.057620 -0.000000 0.167875 -1.053765 12.686863 -1.064170 3.651854 0.000001 0.151100 -0.787411 12.703123 -0.042067 2.738905 -0.000000 0.113312 0.000001 0.000000 -0.000002 7.977355 4.467203 0.156395 0.949178 18.686335 16.543808 3.347537 -0.000001 0.138513 -3.124991 12.999522 -2.238440 2.840330 0.000001 0.117530 -2.579752 13.098525 -0.199404 2.637463 -0.000001 0.109132 -0.000002 -0.000001 0.000001 0.000002 0.000000 -0.000016 0.000000 0.000001 0.000000 -0.000006 0.000001 0.000001 0.000002 -0.000001 0.000000 -11.289943 0.000002 0.000002 -10.520697 1.027499 11.678398 -0.000001 0.000006 -38.200333 -0.635030 0.078401 3.757930 -0.000001 0.000006 -39.900867 -7.907427 2.176857 18.379211 -0.000001 -15.261640 -0.000005 0.828230 0.889912 -18.857579 0.000001 -7.370709 -0.000001 0.000001 0.000000 -0.000000 0.000000 -0.000002 -0.000003 -0.000000 0.000001 0.000001 0.000000 -0.000001 -0.000008 0.000000 -0.000000 0.000001 11.315660 -0.000001 -0.000009 -6.547059 1.772399 7.271166 -0.000001 0.000006 -38.200317 0.398208 -0.053200 7.545564 0.000000 0.000006 -39.900852 -1.789154 -3.841598 18.086665 -0.000002 -15.261643 -0.000004 -0.390537 -0.194968 -20.815787 -0.000001 -7.539997 -0.000000 -0.000000 0.000000 0.000000 -0.000003 -0.000001 -0.000004 -0.000000 0.000001 0.000001 0.000000 -0.000001 0.000004 0.000000 0.000000 -0.000000 
0.108487 -2.914703 88.916382 -0.309401 0.284208 -7.335879 0.000000 2.080106 8.814235 -0.183876 -1.302327 6.651070 0.000000 -0.000002 8.844149 0.121094 0.967225 2.685423 -0.000000 -0.000002 11.682256 -1.616476 -0.754877 1.578010 -0.000000 -0.000002 11.746694 -0.167456 0.894540 3.100606 -0.000000 -0.000005 17.658260 2.290584 -1.296532 3.085125 -0.000000 0.000001 5.101513 2.962590 -0.357471 -3.810867 0.000000 -0.000001 5.101543 -0.600466 1.056937 -18.481326 -0.000001 0.000003 11.655075 -0.000000 -0.000000 0.000001 -2.625377 -0.000002 11.175219 -72.634868 -100.057504 72.899647 -10.434461 -0.000007 0.073254 8.211638 -66.853796 24.680335 -29.627684 -0.000003 0.208016 22.779318 5.207548 -11.866774 -22.857035 -0.000021 0.160490 -6.716576 -8.352533 -12.236835 -3.979597 -2.944297 -2.839461 52.601039 14.824313 -32.253571 -3.350307 -0.000005 0.023546 -20.524582 12.083902 8.237802 -3.756421 -0.000007 0.026390 -14.333980 8.081358 6.190847 -3.147269 -0.000001 0.022078 0.000003 -0.000001 0.000002 -10.031251 -2.345284 -0.016353 -0.373041 -11.901192 10.810322 -4.061000 -0.000003 0.028514 1.338768 -8.928916 -0.533924 -3.248803 0.000004 0.022789 1.269642 -8.729363 -0.078227 -2.639644 -0.000011 0.018524 0.000003 -0.000000 0.000001 -9.501972 -0.006775 0.170792 -1.142814 -10.706259 5.548414 -4.568603 0.000002 0.032066 0.522115 -7.595904 -0.488665 -3.654902 0.000000 0.025663 0.444240 -7.968937 -0.006310 -2.741191 -0.000003 0.019241 0.000002 -0.000000 0.000002 -8.920879 2.267439 0.149417 -0.829302 -10.302575 -2.441388 -4.060998 0.000000 0.028514 -0.861973 -7.389533 0.995083 -3.654890 -0.000002 0.025697 -0.628149 -7.451187 0.010512 -2.741161 -0.000003 0.019205 0.000000 -0.000004 -0.000001 -7.977996 4.467195 -0.117516 -1.705237 -9.893846 -10.778570 -3.350311 0.000000 0.023540 -2.449789 -7.027493 1.935577 -2.842676 -0.000000 0.020002 -2.057769 -6.697675 -0.050779 -2.639636 0.000004 0.018526 -0.000003 0.000001 -0.000001 0.000001 -0.000002 -0.000016 -0.000001 -0.000001 0.000001 0.000009 -0.000010 0.000001 -0.000001 0.000001 0.000001 2.625404 -0.000002 11.175232 90.676820 96.001198 91.057644 10.804365 -0.000002 0.447016 19.215366 68.273505 37.352419 28.700232 -0.000002 1.187488 -40.418539 -4.417547 -6.189617 25.720839 0.328855 0.419203 13.805172 4.286941 -23.578732 4.074707 -2.944291 -2.701221 -53.629583 -13.756547 -30.716003 3.347544 -0.000001 0.138501 22.257073 -12.888556 7.783605 3.753301 0.000006 0.155316 15.520662 -8.619660 5.958882 3.097350 0.000012 0.128128 -0.000001 0.000000 0.000002 10.025926 -2.345281 0.327976 -0.123089 17.228835 -5.520716 4.057624 0.000001 0.167906 1.420279 10.969297 0.509033 3.246094 0.000002 0.134297 1.291822 11.101042 0.029084 2.637442 0.000006 0.109068 0.000001 0.000001 -0.000000 9.490517 -0.006770 0.496867 0.919145 16.575093 -0.275220 4.564818 -0.000000 0.188864 0.613311 10.860637 0.500381 3.651862 0.000001 0.151094 0.475259 10.785475 0.003687 2.738909 -0.000002 0.113329 -0.000000 -0.000001 0.000000 8.910505 2.267439 0.455501 1.104166 18.627895 7.852658 4.057617 0.000000 0.167896 -0.900304 12.360806 -1.027031 3.651861 0.000002 0.151087 -0.666822 12.353407 -0.032653 2.738897 -0.000003 0.113321 -0.000001 0.000004 -0.000001 7.977343 4.467195 0.156414 1.879318 19.598125 16.514943 3.347537 0.000001 0.138527 -2.766323 12.858720 -2.059226 2.840336 0.000003 0.117508 -2.283358 12.804043 -0.071754 2.637445 0.000003 0.109144 0.000000 0.000002 0.000000 -0.000002 0.000000 -0.000015 -0.000001 -0.000000 0.000001 -0.000004 -0.000008 -0.000016 -0.000000 0.000000 0.000002 -11.289943 0.000001 -0.000000 -9.172836 -0.140592 11.052695 0.000001 0.000005 -38.200317 -0.641456 0.048651 6.162409 -0.000000 0.000006 -39.900856 -9.063215 2.847032 17.252136 -0.000001 -15.261642 -0.000003 0.759564 0.796610 -19.016227 0.000000 -7.370709 0.000001 0.000001 0.000000 0.000000 0.000000 0.000001 -0.000004 0.000002 0.000001 -0.000000 -0.000001 -0.000001 0.000004 0.000000 0.000000 0.000000 11.315663 0.000001 -0.000010 -6.383634 1.522126 7.023152 -0.000000 0.000006 -38.200325 0.366385 -0.057357 8.525132 -0.000001 0.000007 -39.900856 -0.566933 -3.721172 17.006174 -0.000001 -15.261640 -0.000005 -0.474020 -0.389100 -20.500106 -0.000001 -7.539995 -0.000000 -0.000000 0.000000 0.000000 -0.000001 0.000000 -0.000003 0.000000 0.000001 0.000001 -0.000000 -0.000000 -0.000000 -0.000000 0.000000 0.000000 
